<svg width="357" height="164" viewBox="0 0 357 164" fill="none" xmlns="http://www.w3.org/2000/svg">
<path fill-rule="evenodd" clip-rule="evenodd" d="M152.812 84.3595C152.384 72.5454 146.812 64.0988 136.739 58.6705C128.892 54.4357 120.45 54.3664 112.002 56.1653C100.31 58.6525 90.6774 64.8745 82.8849 73.969C78.2767 79.349 74.7612 85.449 72.8354 92.3861C72.1922 94.6944 73.0559 96.512 74.9072 97.0387C76.7948 97.5842 78.3214 96.5423 79.0567 94.1914C80.0628 90.9986 81.1697 87.8547 82.9232 84.9887C88.8495 75.3256 96.9462 68.3163 107.487 64.3074C114.081 61.7963 120.796 60.657 127.746 62.5107C140.588 65.9374 146.875 74.8226 146.425 87.0127C145.999 98.5417 140.195 107.592 132.184 115.226C127.91 119.298 122.683 122.054 117.283 124.338C109.466 127.646 101.471 128.452 93.374 125.399C90.8944 124.466 88.5396 123.236 86.9386 120.922C85.2361 118.462 85.7239 116.462 88.4354 115.239C90.659 114.239 93.0407 114.07 95.4097 114.288C99.2734 114.645 103.102 115.251 106.888 116.117C107.671 116.299 108.442 116.542 109.275 116.487C111.079 116.384 112.35 115.537 112.612 114.185C112.924 112.574 112.133 111.126 110.543 110.302C109.465 109.756 108.275 109.629 107.126 109.375C103.501 108.576 102.274 106.745 103.429 103.232C106.84 92.7931 109.156 81.9552 114.595 72.2734C115.261 71.0922 115.1 69.8143 114.261 68.7175C113.419 67.6265 112.282 67.2088 110.954 67.5356C109.82 67.8084 109.144 68.6439 108.609 69.6505C106.358 73.9092 104.548 78.3619 102.944 82.912C100.798 89.0006 99.3457 95.3193 97.1306 101.39C96.0351 104.364 94.0079 106.322 91.061 107.315C88.9658 108.018 86.8464 108.654 84.8787 109.708C82.402 111.034 80.7414 113.082 79.9969 115.772C78.6518 120.619 80.6698 124.381 84.152 127.416C87.7363 130.536 91.9389 132.456 96.5917 133.348C97.2972 133.481 98.107 133.33 98.6785 133.954C99.4343 133.954 100.187 133.954 100.94 133.954C102.56 133.954 104.179 133.954 105.792 133.954C106.334 133.954 106.87 133.954 107.412 133.954C109.144 133.208 111.044 133.245 112.845 132.809C124.422 130.022 133.983 123.854 141.638 114.718C148.925 106.019 153.238 96.1007 152.812 84.3595Z" fill="#1C1B1D"/>
<path fill-rule="evenodd" clip-rule="evenodd" d="M249.18 92.6595C247.728 91.8297 246.129 92.1869 245.073 93.7072C242.962 96.7486 240.961 99.8809 238.8 102.886C237.339 104.915 235.735 106.86 233.677 108.326C232.912 108.878 232.016 109.356 231.129 108.811C230.281 108.29 230.352 107.278 230.465 106.412C230.846 103.51 231.569 100.729 233.397 98.3483C235.052 96.1857 236.647 93.9742 238.234 91.7568C239.585 89.8728 239.35 87.9095 237.692 86.7037C236.082 85.5283 234.608 85.9043 233.114 87.7341C228.843 92.9683 224.747 98.3483 220.121 103.256C218.264 105.225 216.344 107.181 213.887 108.43C212.366 109.198 211.414 108.726 211.054 107.031C210.86 106.11 210.872 105.158 211.157 104.261C214.554 93.6047 221.74 86.8257 232.042 83.3297C233.569 82.8088 235.159 82.8752 236.621 84.0686C237.829 85.0622 239.526 84.6747 240.576 83.5296C241.615 82.3787 241.734 80.5424 240.82 79.2825C239.954 78.0768 238.746 77.374 237.347 77.0291C234.676 76.3746 231.995 76.3862 229.363 77.1741C221.498 79.5249 215.454 84.4684 210.673 91.0901C207.842 95.0219 205.258 99.1413 202.448 103.098C201.263 104.764 200.168 106.594 198.31 107.642C197.287 108.224 196.173 108.496 195.107 107.733C194.012 106.951 193.988 105.769 194.232 104.606C194.619 102.728 195.226 100.911 196.001 99.1535C198.674 93.065 202.579 87.7103 205.758 81.9241C207.288 79.131 209.565 77.5501 212.447 76.6474C213.474 76.3205 214.519 76.0297 215.505 75.5932C216.972 74.933 217.749 73.3701 217.433 71.8007C217.153 70.4254 216.335 69.5949 214.898 69.4621C213.025 69.2868 212.954 69.159 213.614 67.3905C213.921 66.5737 214.355 65.7922 214.323 64.8838C214.263 63.4024 213.046 62.0207 211.632 61.8056C209.861 61.5358 208.637 62.2631 207.991 64.0352C206.622 67.7534 204.979 71.1217 200.388 71.4673C199.484 71.5279 198.686 72.1456 198.072 72.8729C196.649 74.557 197.215 77.4952 199.168 77.895C200.549 78.1677 200.115 78.7248 199.703 79.4037C198.126 82.0208 196.483 84.6018 194.947 87.2428C191.821 92.6169 188.839 98.0936 185.04 103.025C183.474 105.054 181.897 107.084 179.73 108.508C179.028 108.962 178.217 109.289 177.449 108.817C176.718 108.369 176.694 107.49 176.777 106.739C177.098 103.886 177.7 101.117 179.444 98.748C181.284 96.2399 183.147 93.7563 184.903 91.1933C185.939 89.6787 185.487 87.7767 184.01 86.6987C182.606 85.6748 180.986 85.8321 179.837 87.2254C176.693 91.054 173.594 94.9252 170.46 98.7603C167.733 102.098 164.816 105.254 161.313 107.768C160.482 108.369 159.524 109.307 158.396 108.611C157.175 107.859 157.205 106.503 157.312 105.212C157.324 104.994 157.357 104.776 157.419 104.57C160.705 93.7065 167.963 86.8733 178.384 83.3232C179.914 82.808 181.456 82.9415 182.956 84.0679C184.867 85.4973 187.517 84.0073 187.719 81.5901C187.874 79.7299 186.772 78.1482 184.57 77.3487C180.777 75.9677 176.997 76.4338 173.365 77.9188C164.93 81.3599 158.756 87.4664 154.195 95.33C151.989 99.1232 150.632 103.23 151.097 107.713C151.65 113.033 156.232 117.086 161.667 114.759C163.212 114.093 164.661 113.263 166.09 112.378C168.855 110.652 169.156 110.682 171.555 112.814C175.473 116.298 179.658 116.571 183.796 113.602C185.076 112.675 186.219 111.597 187.302 110.445C187.695 110.04 188.028 109.749 188.326 110.573C189.588 114.075 193.863 115.844 197.78 114.941C200.804 114.238 203.192 112.614 205.281 110.252C205.555 110.694 205.764 111.004 205.947 111.324C208.067 115.068 211.255 116.262 215.256 114.783C217.14 114.087 218.801 112.948 220.521 111.924C222.478 110.761 223.117 110.839 224.802 112.415C229.291 116.602 233.538 116.819 238.268 112.936C243.57 108.592 247.103 102.8 250.49 96.9297C251.359 95.4281 250.632 93.5016 249.18 92.6595Z" fill="#1C1B1D"/>
<path fill-rule="evenodd" clip-rule="evenodd" d="M48.6165 41.7668C48.0153 37.6655 46.4908 33.8484 45.0953 29.9953C44.0864 27.2173 44.158 26.5787 46.661 25.1551C48.0209 24.3794 47.3934 23.6102 47.1403 22.7075C46.8134 21.5386 46.0866 21.6079 45.1939 21.9687C42.2229 23.1773 39.2406 24.3621 36.264 25.549C35.6032 25.8124 34.7934 26.0282 35.3557 26.9972C35.8173 27.7909 35.6266 29.4173 37.2936 28.8509C39.3151 28.1604 40.2589 29.1785 40.8984 30.9535C41.7585 33.3469 42.7292 35.7006 43.607 38.0905C44.1906 39.6837 44.6338 41.3252 44.6579 43.049C44.7415 45.3934 43.7652 47.1352 41.806 48.3532C37.9955 50.7286 35.1175 49.9767 32.2507 45.8148C30.3618 43.0613 29.2975 39.8835 27.8914 36.8782C26.7498 34.4401 26.8909 33.7431 29.2727 32.4226C30.7879 31.5834 30.0243 30.8077 29.7059 29.8538C29.2982 28.6272 28.575 28.8877 27.7354 29.2874C24.4596 30.8568 21.1773 32.414 17.8972 33.9559C17.0024 34.3766 16.2643 34.7525 16.9265 35.9914C17.4491 36.9793 17.7469 37.7997 19.2274 37.2426C21.6744 36.3277 22.2891 36.7397 23.408 39.1843C24.8999 42.4645 26.3521 45.7606 28.2779 48.8171C31.7565 54.3392 35.6939 55.6056 41.6358 53.0729C42.3414 52.7699 43.032 52.4307 43.6992 52.0461C47.7891 49.691 49.3043 46.4923 48.6165 41.7668Z" fill="#1C1B1D"/>
<path fill-rule="evenodd" clip-rule="evenodd" d="M322.434 46.2383C316.799 42.7034 311.152 39.2045 305.287 36.0874C304.43 35.6364 303.657 34.9149 302.924 36.363C302.367 37.4598 302.126 38.1806 303.43 38.9195C305.159 39.9008 305.532 41.2458 304.424 43.1572C302.09 47.1835 299.89 51.2906 297.754 55.4281C296.855 57.1822 295.619 57.7031 294.023 56.8156C292.508 55.9613 292.184 56.9065 291.583 57.9427C290.735 59.3909 291.884 59.603 292.682 60.0633C296.608 62.35 300.537 64.6251 304.466 66.9095C306.085 67.8576 307.788 69.6962 309.297 69.5446C311.039 69.3686 311.756 66.7457 312.92 65.1886C313.366 64.5947 314.646 63.9381 313.261 63.0138C312.291 62.3716 311.321 61.1421 310.246 62.9835C309.849 63.6748 309.079 63.9648 308.153 63.9526C306.081 63.4922 304.466 61.9048 302.516 61.0086C300.709 60.1723 300.286 59.2155 301.578 57.522C302.591 56.1951 302.894 53.8536 304.311 53.4416C305.758 53.0267 307.252 54.7447 308.633 55.6561C309.991 56.5501 310.631 56.2045 311.387 54.8717C312.161 53.4965 312.185 52.7792 310.658 51.9155C305.913 49.2198 305.979 49.1649 308.959 44.5123C309.542 43.5974 310.007 43.3737 310.929 43.9885C312.445 44.9914 314.001 45.9424 315.582 46.8422C317.439 47.9058 318.478 49.1325 317.341 51.4681C316.537 53.1191 318.457 53.031 319.132 53.7129C319.924 54.5124 320.305 53.7461 320.645 53.0888C321.449 51.5165 322.196 49.9175 323.077 48.3907C323.699 47.3286 323.39 46.8314 322.434 46.2383Z" fill="#1C1B1D"/>
<path fill-rule="evenodd" clip-rule="evenodd" d="M59.267 29.7222C60.1186 30.013 61.0141 30.1948 61.8926 30.3889C64.0652 30.8673 66.2562 31.2613 68.4054 31.8183C69.727 32.1575 70.9537 32.8516 71.0133 34.4686C71.0728 36.1859 69.9596 37.2372 68.5514 37.8217C66.2236 38.7907 63.827 38.7424 61.7969 37.1607C60.3207 36.0034 59.6868 36.7487 59.0883 37.9299C58.1176 39.8385 58.877 41.568 60.9042 42.2708C62.0444 42.6677 63.22 42.7283 64.4105 42.6886C68.8521 42.6944 72.2988 41.2109 74.6033 38.2936C76.9814 35.2825 76.3419 30.969 73.2099 28.7878C71.6741 27.7249 69.9206 27.2978 68.1678 26.8612C65.8698 26.2861 63.488 26.1072 61.268 25.2254C60.2561 24.8257 59.357 24.265 59.2613 23.0319C59.1784 21.8623 59.8031 21.0267 60.6958 20.3665C62.8598 18.761 65.3486 18.9306 67.3099 20.8088C67.697 21.1818 68.0062 21.9481 68.6138 21.6876C70.061 21.0664 71.3345 20.0728 71.6975 18.4558C72.028 17.017 70.9176 16.3171 69.7987 15.7809C66.1342 14.0362 59.9931 15.0839 56.8441 17.9831C52.3785 22.0982 53.5371 27.7783 59.267 29.7222Z" fill="#1C1B1D"/>
<path fill-rule="evenodd" clip-rule="evenodd" d="M287.889 48.8857C287.026 48.6036 286.151 46.9952 285.121 48.7219C284.604 49.5763 284.014 50.4003 282.787 50.3606C282.129 50.4032 281.496 50.0792 280.868 49.7761C279.293 49.0221 277.76 48.1649 276.143 47.5162C274.988 47.0559 274.92 46.571 275.423 45.4807C277.465 41.0582 279.394 36.5745 281.388 32.1217C282.468 29.6951 282.96 29.3654 285.394 30.3099C287.044 30.9521 287.225 29.8741 287.755 28.8927C288.416 27.669 287.543 27.4237 286.778 27.078C283.397 25.5635 280.013 24.0727 276.643 22.5344C275.705 22.1072 274.987 21.877 274.535 23.1859C274.175 24.2221 273.678 24.9487 275.142 25.6876C277.488 26.8753 277.565 27.4626 276.523 29.9224C274.74 34.1572 272.904 38.3741 271.161 42.6269C270.457 44.3442 269.477 45.2137 267.629 44.4351C266.521 43.9712 265.929 44.1862 265.458 45.4561C264.961 46.8134 265.366 47.2976 266.536 47.8156C270.817 49.6996 275.037 51.7236 279.315 53.6047C281.128 54.4013 283.015 56.5364 284.676 55.7131C286.227 54.9497 286.971 52.4747 288.045 50.7365C288.443 50.0972 289.096 49.2826 287.889 48.8857Z" fill="#1C1B1D"/>
<path fill-rule="evenodd" clip-rule="evenodd" d="M245.201 40.0894C248.025 41.0953 250.844 42.1011 253.672 43.1005C254.499 43.3913 255.369 44.0032 255.839 42.5644C256.206 41.4589 256.733 40.4596 255.098 39.8715C253.672 39.3534 252.982 38.3079 253.553 36.6909C255.288 31.7597 257.021 26.8221 258.747 21.8874C258.94 21.3332 259.092 20.8635 259.846 20.8663C262.519 20.8844 264.364 22.8658 263.984 25.5615C263.742 27.3005 265.242 26.9397 265.98 27.4455C266.921 28.0812 267.15 27.2695 267.355 26.5486C267.864 24.7794 268.356 23.0079 268.9 21.2473C269.183 20.3266 268.945 19.8511 268.029 19.4875C261.667 16.9671 255.193 14.7771 248.707 12.6175C247.721 12.287 247.141 12.5352 246.769 13.5476C246.237 15.0073 245.554 16.4129 245.058 17.8856C244.823 18.579 243.62 19.5697 245.254 20.0423C246.302 20.3454 247.594 21.5482 248.313 19.4788C248.686 18.4123 249.468 17.7218 250.713 17.7009C251.341 17.8979 251.996 18.1764 252.678 18.2976C254.439 18.6129 254.889 19.3792 254.219 21.2055C252.559 25.7131 251.079 30.2899 249.605 34.8675C249.016 36.6822 247.935 37.5207 246.156 36.8785C244.587 36.3149 244.462 37.3598 244.051 38.3663C243.537 39.6348 244.403 39.8073 245.201 40.0894Z" fill="#1C1B1D"/>
<path fill-rule="evenodd" clip-rule="evenodd" d="M77.2728 16.9642C77.4246 17.7882 77.097 19.1057 78.603 18.7147C79.5794 18.46 81.2939 18.7421 80.7196 16.7001C80.7345 16.3458 80.7104 15.985 80.7791 15.6365C81.05 14.1465 83.1155 12.9162 85.3278 13.0071C86.7898 13.0677 86.4325 14.4156 86.6282 15.2461C87.6223 19.5206 88.5511 23.8067 89.4595 28.1022C90.1352 31.3037 90.1409 31.3824 87.2982 32.7519C85.9198 33.4186 86.7714 34.2607 86.8487 35.063C86.9316 35.9231 87.3245 36.32 88.2413 36.1079C91.4292 35.3596 94.6207 34.6301 97.8171 33.9244C98.8439 33.6971 99.2643 33.179 98.8921 32.1277C98.5943 31.3037 98.8566 30.0381 97.1861 30.4681C95.4063 30.9285 94.3016 30.147 93.9237 28.1902C92.9565 23.1919 91.8908 18.206 90.8549 13.22C90.7301 12.6326 90.6705 12.1752 91.3257 11.7963C93.6351 10.4817 95.8084 11.0632 97.1272 13.5108C97.9044 14.9553 98.9637 14.0707 99.8748 13.9589C101.042 13.8102 100.726 12.9198 100.518 12.1478C100.095 10.5784 99.6486 9.01547 99.2799 7.42804C99.0176 6.33704 98.6134 5.97698 97.3896 6.262C92.2432 7.45834 87.0458 8.46419 81.8959 9.64539C80.1488 10.0509 77.8358 9.92103 76.8417 11.2509C75.7342 12.7322 77.1005 14.8796 77.253 16.7491C77.2551 16.8191 77.2551 16.892 77.2728 16.9642Z" fill="#1C1B1D"/>
<path fill-rule="evenodd" clip-rule="evenodd" d="M218.499 13.3808C219.357 13.5532 220.303 14.365 221.104 13.1535C222.926 10.3906 223.283 10.3185 226.314 11.2269C227.465 11.5726 227.674 12.1693 227.403 13.2538C226.191 18.1279 224.998 23.0078 223.855 27.8964C223.465 29.5805 222.554 30.4255 220.881 29.9774C219.167 29.5199 219.206 30.6982 218.855 31.795C218.375 33.2915 219.453 33.2973 220.262 33.5152C223.087 34.2692 225.92 34.9691 228.757 35.6928C229.647 35.9201 230.502 36.2477 230.799 34.8299C231.035 33.7028 231.535 32.6977 229.817 32.2734C228.236 31.8794 227.555 30.7227 227.992 29.0264C229.284 24.0281 230.564 19.0299 231.874 14.0381C231.994 13.6023 231.984 13.0446 232.595 12.8505C234.625 12.2083 237.578 14.5281 237.465 16.7642C236.792 18.7752 238.596 18.3971 239.522 18.7571C240.757 19.2413 240.858 18.1568 241.025 17.345C241.361 15.7576 241.62 14.1492 241.981 12.5647C242.198 11.6043 241.888 11.0985 240.977 10.8445C234.348 8.95404 227.683 7.22445 220.959 5.71856C220.161 5.53961 219.682 5.65793 219.447 6.60895C219.03 8.32337 218.45 10.0017 217.943 11.6916C217.731 12.3901 217.479 13.1809 218.499 13.3808Z" fill="#1C1B1D"/>
<path fill-rule="evenodd" clip-rule="evenodd" d="M171.549 26.9878C177.023 27.451 182.506 27.7634 187.959 28.5117C191.085 28.9475 191.103 28.8573 191.799 25.7366C192.014 24.7733 192.144 23.7855 192.389 22.8287C192.639 21.8293 193.031 20.8963 191.465 20.6539C190.263 20.4721 189.233 20.3451 189.013 21.9924C188.804 23.543 187.822 24.1405 186.352 24.0128C184.268 23.8309 182.19 23.6433 180.112 23.4767C179.332 23.416 179.029 23.0589 179.1 22.2406C179.564 17.1702 180.052 12.0991 180.415 7.01571C180.564 4.96216 181.505 4.01115 183.469 4.19875C184.934 4.33224 185.148 3.54142 185.274 2.3025C185.41 0.785063 184.463 0.697023 183.482 0.606107C181.131 0.384588 178.773 0.215022 176.415 0.0245305C175.439 0.0151503 174.462 0.00649403 173.489 0C172.804 0.036078 172.119 0.0728766 171.43 0.111841C171.039 2.02902 171.355 3.33217 173.686 3.56235C175.178 3.7081 175.326 5.06752 175.231 6.36127C174.91 11.1654 174.582 15.9696 174.279 20.7744C174.171 22.5191 173.481 23.6643 171.593 23.5005C170.131 23.3699 170.111 24.2393 170.04 25.3332C169.959 26.5483 170.396 26.8875 171.549 26.9878Z" fill="#1C1B1D"/>
<path fill-rule="evenodd" clip-rule="evenodd" d="M199.525 29.7415C202.455 30.2805 205.419 30.7228 208.348 31.2806C209.315 31.4682 210.107 31.7352 210.334 30.3108C210.512 29.1599 210.89 28.1605 209.191 27.851C207.324 27.5184 206.824 26.3487 207.235 24.407C208.203 19.7753 209.036 15.1133 209.795 10.4398C210.087 8.59766 210.917 7.78589 213.096 8.1077C214.495 8.56806 214.85 7.50161 215.081 6.04478C215.362 4.23006 213.9 4.71206 213.176 4.55764C210.051 3.89742 206.89 3.44283 203.752 2.81868C202.639 2.60077 201.882 2.56397 201.656 3.98184C201.465 5.18684 201.484 5.99931 202.984 6.20495C204.943 6.4777 205.603 7.70435 205.235 9.70668C204.383 14.3629 203.567 19.0249 202.877 23.7107C202.591 25.695 201.514 26.5342 199.769 26.2369C197.995 25.9367 198.305 27.1482 198.025 28.1057C197.602 29.59 198.692 29.59 199.525 29.7415Z" fill="#1C1B1D"/>
<path fill-rule="evenodd" clip-rule="evenodd" d="M10.8498 45.741C9.7543 43.7783 10.0698 42.3208 11.9375 41.3366C13.362 40.5912 12.9018 39.8191 12.3977 38.7981C11.7723 37.5412 10.9866 37.9683 10.1578 38.4287C7.21941 40.0522 4.28745 41.6822 1.35691 43.3122C0.514543 43.7783 -0.503667 44.0727 0.281972 45.4906C0.938561 46.6689 1.5207 47.2202 2.87288 46.433C4.58597 45.4329 5.81831 45.9538 6.73371 47.8169C8.24684 50.9283 10.033 53.8968 11.5362 57.0103C14.1391 62.3902 13.1628 64.1833 7.32577 65.1531C7.12014 65.1863 6.90317 65.1653 6.70109 65.2108C6.38981 65.2866 6.31111 65.4929 6.33309 65.8321C6.43023 67.1099 8.40071 69.0856 9.61178 69.0791C13.5173 69.061 16.9867 65.674 17.1604 61.7148C17.2604 59.3914 16.718 57.2166 15.6735 55.1624C14.0796 52.0142 12.5657 48.8184 10.8498 45.741Z" fill="#1C1B1D"/>
<path fill-rule="evenodd" clip-rule="evenodd" d="M123.213 29.0622C126.108 28.6927 129.023 28.438 131.934 28.2078C132.86 28.135 133.488 27.8954 133.169 26.8354C132.931 26.0359 133.476 24.797 131.809 24.7422C128.901 24.639 128.922 24.4875 129.693 21.659C130.083 20.2346 130.702 19.5109 132.267 19.5441C133.86 19.5744 135.455 19.2959 137.048 19.1566C137.051 19.1804 137.051 19.2049 137.053 19.2295C137.819 19.1934 138.59 19.1934 139.349 19.1176C141.789 18.8658 141.662 21.011 142.084 22.3798C142.534 23.8395 141.14 24.1729 140.141 24.2212C138.554 24.2999 138.876 25.318 138.87 26.287C138.858 27.3867 139.352 27.7713 140.412 27.7136C143.472 27.5476 146.531 27.4134 149.592 27.3412C150.657 27.3167 150.931 26.7958 150.827 25.875C150.735 25.051 151.198 23.9117 149.672 23.903C147.883 23.8973 147.014 22.755 146.314 21.2102C143.442 14.8309 140.495 8.4963 137.554 2.15379C137.214 1.42357 137.024 0.499961 135.863 0.611803C133.577 0.823941 131.287 0.990625 128.999 1.15658C127.814 1.2475 126.921 1.36874 126.983 3.06224C127.04 4.87046 128.025 4.70737 129.184 4.65542C130.61 4.59193 131.586 4.93395 130.886 6.7364C128.787 12.1373 127.01 17.6536 125.248 23.1793C124.837 24.4514 124.138 25.4905 122.674 25.6449C121.563 25.7603 121.087 26.251 121.325 27.4747C121.549 28.5989 121.879 29.2353 123.213 29.0622ZM132.241 13.7348C133.089 11.3602 133.899 8.97253 134.929 6.00476C136.281 8.94294 137.352 11.2967 138.447 13.6439C138.82 14.4376 138.843 14.9766 137.748 15.0249C136.295 15.0921 134.833 15.1945 133.387 15.346C132.03 15.4889 131.821 14.9008 132.241 13.7348Z" fill="#1C1B1D"/>
<path d="M156.605 144.108C155.703 144.108 155.011 143.92 154.529 143.543C154.056 143.167 153.732 142.643 153.559 141.973C153.387 141.296 153.3 140.505 153.3 139.602V126.987H157.361V139.128C157.361 139.805 157.413 140.279 157.519 140.55C157.624 140.814 157.872 140.946 158.263 140.946C158.684 140.946 158.947 140.757 159.052 140.381C159.165 140.005 159.222 139.519 159.222 138.924V126.987H163.248V143.927H159.21V142.12C158.955 142.768 158.646 143.261 158.285 143.6C157.932 143.938 157.372 144.108 156.605 144.108Z" fill="#1C1B1D"/>
<path d="M166.028 143.927V126.987H170.066V129.144C170.216 128.497 170.494 127.947 170.9 127.496C171.314 127.036 171.885 126.807 172.615 126.807C173.788 126.807 174.637 127.168 175.164 127.891C175.698 128.614 175.965 129.604 175.965 130.861V143.927H171.983V131.279C171.983 130.948 171.915 130.643 171.78 130.364C171.645 130.078 171.412 129.935 171.081 129.935C170.772 129.935 170.543 130.044 170.393 130.262C170.25 130.473 170.16 130.741 170.122 131.064C170.084 131.38 170.066 131.697 170.066 132.013V143.927H166.028Z" fill="#1C1B1D"/>
<path d="M178.71 143.927V124.051H182.816V143.927H178.71Z" fill="#1C1B1D"/>
<path d="M190.513 144.108C187.144 144.108 185.46 142.357 185.46 138.856V132.058C185.46 130.462 185.907 129.19 186.802 128.241C187.697 127.285 188.934 126.807 190.513 126.807C192.099 126.807 193.34 127.285 194.235 128.241C195.13 129.19 195.577 130.462 195.577 132.058V138.856C195.577 142.357 193.889 144.108 190.513 144.108ZM190.513 140.991C190.851 140.991 191.092 140.87 191.235 140.629C191.385 140.381 191.46 140.069 191.46 139.692V131.414C191.46 130.428 191.144 129.935 190.513 129.935C189.881 129.935 189.565 130.428 189.565 131.414V139.692C189.565 140.069 189.637 140.381 189.78 140.629C189.93 140.87 190.174 140.991 190.513 140.991Z" fill="#1C1B1D"/>
<path d="M203.319 144.108C201.424 144.108 200.078 143.622 199.281 142.651C198.492 141.68 198.097 140.253 198.097 138.371V133.153C198.097 131.738 198.247 130.56 198.548 129.619C198.849 128.678 199.375 127.974 200.127 127.507C200.879 127.04 201.924 126.807 203.263 126.807C204.195 126.807 205.03 126.972 205.767 127.304C206.511 127.635 207.098 128.121 207.526 128.76C207.955 129.4 208.169 130.183 208.169 131.109V133.696H204.052V131.324C204.052 130.933 203.996 130.605 203.883 130.342C203.77 130.07 203.526 129.935 203.15 129.935C202.488 129.935 202.157 130.406 202.157 131.347V139.557C202.157 139.903 202.233 140.223 202.383 140.517C202.533 140.803 202.782 140.946 203.127 140.946C203.481 140.946 203.725 140.806 203.861 140.528C204.004 140.242 204.075 139.911 204.075 139.534V136.688H208.169V139.647C208.169 140.581 207.959 141.382 207.538 142.052C207.124 142.715 206.553 143.223 205.823 143.577C205.094 143.931 204.259 144.108 203.319 144.108Z" fill="#1C1B1D"/>
<path d="M210.734 143.927V124.051H214.727V132.826L216.667 126.987H220.852L218.314 134.351L221.54 143.927H217.242L214.727 135.943V143.927H210.734Z" fill="#1C1B1D"/>
<path d="M229.805 143.927V124.051H233.798V132.826L235.738 126.987H239.923L237.385 134.351L240.611 143.927H236.313L233.798 135.943V143.927H229.805Z" fill="#1C1B1D"/>
<path d="M242.307 143.927V126.987H246.345V129.144C246.496 128.497 246.774 127.947 247.18 127.496C247.593 127.036 248.165 126.807 248.894 126.807C250.067 126.807 250.917 127.168 251.443 127.891C251.977 128.614 252.244 129.604 252.244 130.861V143.927H248.263V131.279C248.263 130.948 248.195 130.643 248.06 130.364C247.924 130.078 247.691 129.935 247.36 129.935C247.052 129.935 246.823 130.044 246.672 130.262C246.529 130.473 246.439 130.741 246.402 131.064C246.364 131.38 246.345 131.697 246.345 132.013V143.927H242.307Z" fill="#1C1B1D"/>
<path d="M259.907 144.108C256.539 144.108 254.854 142.357 254.854 138.856V132.058C254.854 130.462 255.302 129.19 256.197 128.241C257.091 127.285 258.328 126.807 259.907 126.807C261.494 126.807 262.735 127.285 263.63 128.241C264.524 129.19 264.972 130.462 264.972 132.058V138.856C264.972 142.357 263.284 144.108 259.907 144.108ZM259.907 140.991C260.246 140.991 260.486 140.87 260.629 140.629C260.78 140.381 260.855 140.069 260.855 139.692V131.414C260.855 130.428 260.539 129.935 259.907 129.935C259.276 129.935 258.96 130.428 258.96 131.414V139.692C258.96 140.069 259.031 140.381 259.174 140.629C259.325 140.87 259.569 140.991 259.907 140.991Z" fill="#1C1B1D"/>
<path d="M269.398 143.927L267.356 126.987H270.819L271.936 136.09L272.917 126.987H276.786L277.948 136.09L278.884 126.987H282.358L280.294 143.927H276.041L274.823 134.317L273.763 143.927H269.398Z" fill="#1C1B1D"/>
<path d="M284.866 143.927V124.051H288.972V143.927H284.866Z" fill="#1C1B1D"/>
<path d="M296.488 144.108C295.285 144.108 294.327 143.882 293.612 143.43C292.898 142.978 292.387 142.327 292.078 141.476C291.77 140.626 291.616 139.602 291.616 138.405V131.595C291.616 130.022 292.067 128.832 292.969 128.026C293.872 127.213 295.112 126.807 296.691 126.807C299.94 126.807 301.564 128.403 301.564 131.595V132.826C301.564 134.317 301.549 135.318 301.519 135.83H295.654V139.105C295.654 139.406 295.673 139.703 295.71 139.997C295.748 140.283 295.831 140.52 295.958 140.709C296.094 140.897 296.308 140.991 296.601 140.991C297.022 140.991 297.286 140.81 297.391 140.449C297.496 140.08 297.549 139.602 297.549 139.015V137.388H301.564V138.348C301.564 139.613 301.406 140.675 301.09 141.533C300.782 142.384 300.256 143.027 299.511 143.464C298.774 143.893 297.767 144.108 296.488 144.108ZM295.631 133.82H297.549V131.539C297.549 130.929 297.474 130.492 297.323 130.229C297.173 129.958 296.947 129.822 296.646 129.822C296.323 129.822 296.071 129.95 295.891 130.206C295.718 130.462 295.631 130.906 295.631 131.539V133.82Z" fill="#1C1B1D"/>
<path d="M307.513 144.108C306.731 144.108 306.11 143.965 305.652 143.679C305.193 143.393 304.851 142.997 304.625 142.493C304.4 141.988 304.249 141.397 304.174 140.72C304.107 140.042 304.073 139.316 304.073 138.54V131.177C304.073 129.875 304.302 128.821 304.761 128.015C305.227 127.21 306.013 126.807 307.118 126.807C307.938 126.807 308.566 126.984 309.002 127.338C309.445 127.684 309.788 128.169 310.028 128.794V124.051H314.134V143.927H310.028V142.131C309.803 142.741 309.502 143.223 309.126 143.577C308.757 143.931 308.22 144.108 307.513 144.108ZM309.058 140.946C309.442 140.946 309.697 140.791 309.825 140.483C309.96 140.174 310.028 139.621 310.028 138.823V131.697C310.028 131.298 309.968 130.906 309.848 130.522C309.735 130.131 309.479 129.935 309.081 129.935C308.645 129.935 308.37 130.119 308.257 130.488C308.145 130.857 308.088 131.26 308.088 131.697V138.823C308.088 140.238 308.411 140.946 309.058 140.946Z" fill="#1C1B1D"/>
<path d="M321.402 146.863C320.62 146.863 319.947 146.822 319.383 146.739C318.827 146.664 318.327 146.524 317.883 146.321C317.439 146.118 316.996 145.832 316.552 145.463L317.917 143.125C318.902 143.712 319.887 144.006 320.872 144.006C321.519 144.006 322 143.799 322.316 143.385C322.632 142.971 322.79 142.433 322.79 141.77V140.11C322.466 141.269 321.605 141.849 320.207 141.849C319.402 141.849 318.752 141.657 318.255 141.273C317.759 140.889 317.398 140.37 317.172 139.715C316.947 139.06 316.834 138.329 316.834 137.524V131.437C316.834 130.526 316.932 129.724 317.127 129.032C317.323 128.331 317.665 127.786 318.154 127.394C318.643 127.003 319.327 126.807 320.207 126.807C320.951 126.807 321.53 126.995 321.944 127.371C322.365 127.748 322.647 128.256 322.79 128.896V126.987H326.906V141.51C326.906 143.43 326.463 144.8 325.576 145.621C324.696 146.449 323.305 146.863 321.402 146.863ZM321.842 138.8C322.474 138.8 322.79 138.228 322.79 137.083V131.324C322.79 131.015 322.699 130.699 322.519 130.375C322.346 130.052 322.105 129.89 321.797 129.89C321.406 129.89 321.162 130.037 321.064 130.33C320.966 130.616 320.917 130.948 320.917 131.324V137.083C320.917 137.49 320.966 137.878 321.064 138.247C321.169 138.616 321.428 138.8 321.842 138.8Z" fill="#1C1B1D"/>
<path d="M334.378 144.108C333.175 144.108 332.216 143.882 331.502 143.43C330.787 142.978 330.276 142.327 329.968 141.476C329.659 140.626 329.505 139.602 329.505 138.405V131.595C329.505 130.022 329.956 128.832 330.859 128.026C331.761 127.213 333.002 126.807 334.581 126.807C337.829 126.807 339.454 128.403 339.454 131.595V132.826C339.454 134.317 339.439 135.318 339.408 135.83H333.543V139.105C333.543 139.406 333.562 139.703 333.6 139.997C333.637 140.283 333.72 140.52 333.848 140.709C333.983 140.897 334.197 140.991 334.491 140.991C334.912 140.991 335.175 140.81 335.28 140.449C335.386 140.08 335.438 139.602 335.438 139.015V137.388H339.454V138.348C339.454 139.613 339.296 140.675 338.98 141.533C338.672 142.384 338.145 143.027 337.401 143.464C336.664 143.893 335.656 144.108 334.378 144.108ZM333.521 133.82H335.438V131.539C335.438 130.929 335.363 130.492 335.213 130.229C335.062 129.958 334.837 129.822 334.536 129.822C334.212 129.822 333.961 129.95 333.78 130.206C333.607 130.462 333.521 130.906 333.521 131.539V133.82Z" fill="#1C1B1D"/>
</svg>
