<svg width="235" height="108" viewBox="0 0 235 108" fill="none" xmlns="http://www.w3.org/2000/svg">
<path fill-rule="evenodd" clip-rule="evenodd" d="M100.591 55.5538C100.309 47.7738 96.6407 42.2114 90.01 38.6367C84.845 35.8479 79.2879 35.8022 73.7271 36.9869C66.0304 38.6248 59.6896 42.7222 54.56 48.7113C51.5267 52.2542 49.2125 56.2713 47.9448 60.8396C47.5215 62.3597 48.09 63.5566 49.3087 63.9035C50.5512 64.2628 51.5561 63.5766 52.0401 62.0285C52.7024 59.9258 53.431 57.8555 54.5853 55.9681C58.4863 49.6046 63.8161 44.9888 70.7548 42.3487C75.0951 40.6951 79.5157 39.9448 84.0907 41.1655C92.544 43.4221 96.6822 49.2734 96.3863 57.301C96.1058 64.8933 92.285 70.8534 87.0121 75.8807C84.1986 78.5621 80.7577 80.3773 77.2029 81.8812C72.0575 84.0594 66.7944 84.5902 61.4647 82.5797C59.8324 81.9653 58.2824 81.1552 57.2284 79.6313C56.1078 78.0114 56.4289 76.6947 58.2138 75.8888C59.6775 75.2307 61.2453 75.119 62.8047 75.263C65.348 75.4982 67.868 75.8969 70.3604 76.4676C70.8757 76.5873 71.3831 76.747 71.932 76.7108C73.1194 76.6429 73.9558 76.0851 74.1285 75.1951C74.3338 74.134 73.8129 73.1808 72.7665 72.6377C72.057 72.2784 71.2734 72.1948 70.5172 72.0275C68.1308 71.5011 67.3233 70.2955 68.0836 67.9819C70.3291 61.1076 71.8535 53.9705 75.4335 47.5946C75.8722 46.8168 75.7663 45.9752 75.2141 45.253C74.6596 44.5345 73.911 44.2594 73.0372 44.4746C72.2904 44.6543 71.8456 45.2045 71.4932 45.8674C70.0117 48.6718 68.8201 51.6041 67.7644 54.6006C66.3515 58.6101 65.3956 62.7712 63.9375 66.7688C63.2164 68.7275 61.8819 70.0166 59.9421 70.6709C58.5629 71.1337 57.1678 71.5524 55.8725 72.2466C54.2422 73.12 53.1491 74.4685 52.659 76.24C51.7736 79.4317 53.1019 81.9092 55.3941 83.9083C57.7535 85.9625 60.52 87.2274 63.5828 87.8142C64.0472 87.9021 64.5802 87.8024 64.9564 88.2134C65.4539 88.2134 65.9496 88.2134 66.4453 88.2134C67.5114 88.2134 68.577 88.2134 69.6393 88.2134C69.9959 88.2134 70.3487 88.2134 70.7053 88.2134C71.8456 87.7225 73.096 87.7467 74.2816 87.4593C81.9022 85.6241 88.1958 81.5624 93.2353 75.5462C98.0316 69.817 100.871 63.2858 100.591 55.5538Z" fill="#FBFAF7"/>
<path fill-rule="evenodd" clip-rule="evenodd" d="M164.026 61.0194C163.07 60.473 162.018 60.7082 161.322 61.7094C159.933 63.7122 158.616 65.775 157.193 67.7541C156.231 69.0902 155.176 70.3713 153.821 71.3364C153.318 71.6999 152.728 72.0149 152.144 71.6557C151.585 71.3126 151.632 70.6464 151.707 70.0758C151.957 68.1651 152.434 66.3338 153.637 64.7657C154.726 63.3416 155.776 61.8852 156.821 60.425C157.71 59.1843 157.556 57.8914 156.464 57.0973C155.404 56.3233 154.434 56.5709 153.451 57.7759C150.639 61.2228 147.942 64.7657 144.897 67.9974C143.675 69.2941 142.411 70.5823 140.794 71.4048C139.793 71.9109 139.166 71.6001 138.929 70.4835C138.802 69.8771 138.81 69.2504 138.997 68.6597C141.233 61.6419 145.963 57.1777 152.745 54.8754C153.75 54.5324 154.797 54.5761 155.759 55.362C156.554 56.0163 157.671 55.7612 158.363 55.0071C159.046 54.2492 159.125 53.0399 158.523 52.2102C157.953 51.4162 157.157 50.9534 156.237 50.7262C154.479 50.2952 152.714 50.3028 150.981 50.8217C145.804 52.3698 141.825 55.6253 138.678 59.9859C136.815 62.5751 135.114 65.2879 133.264 67.8938C132.484 68.9909 131.763 70.1955 130.54 70.8859C129.867 71.2689 129.133 71.4485 128.432 70.9458C127.711 70.4312 127.695 69.6528 127.856 68.8869C128.111 67.65 128.51 66.4535 129.02 65.296C130.78 61.2865 133.35 57.7602 135.443 53.9498C136.45 52.1104 137.949 51.0693 139.846 50.4749C140.522 50.2596 141.21 50.0681 141.859 49.7806C142.825 49.3459 143.336 48.3166 143.128 47.2831C142.944 46.3774 142.405 45.8305 141.459 45.7431C140.227 45.6276 140.18 45.5435 140.615 44.3789C140.817 43.841 141.102 43.3264 141.081 42.7281C141.042 41.7526 140.24 40.8426 139.31 40.701C138.144 40.5233 137.338 41.0023 136.913 42.1693C136.011 44.6179 134.93 46.836 131.908 47.0636C131.313 47.1035 130.788 47.5103 130.384 47.9892C129.447 49.0983 129.82 51.0332 131.105 51.2964C132.014 51.4761 131.728 51.8429 131.457 52.29C130.419 54.0135 129.337 55.7132 128.326 57.4523C126.269 60.9914 124.306 64.598 121.805 67.8453C120.774 69.182 119.736 70.5186 118.31 71.4561C117.847 71.7555 117.314 71.9707 116.809 71.66C116.327 71.3649 116.311 70.7861 116.366 70.2915C116.577 68.4122 116.973 66.5889 118.121 65.0289C119.333 63.3772 120.559 61.7417 121.715 60.0539C122.397 59.0565 122.099 57.8039 121.127 57.094C120.203 56.4198 119.136 56.5233 118.38 57.4409C116.31 59.9622 114.271 62.5115 112.208 65.037C110.413 67.2352 108.492 69.3136 106.186 70.9691C105.64 71.3644 105.009 71.9826 104.266 71.5241C103.463 71.029 103.482 70.1356 103.553 69.2855C103.561 69.142 103.582 68.9985 103.623 68.8626C105.786 61.7089 110.564 57.209 117.424 54.8712C118.431 54.5319 119.446 54.6198 120.433 55.3615C121.691 56.3029 123.435 55.3216 123.568 53.7298C123.671 52.5048 122.945 51.4632 121.496 50.9367C118.999 50.0272 116.511 50.3342 114.12 51.3121C108.567 53.5782 104.503 57.5996 101.501 62.778C100.049 65.276 99.1556 67.9807 99.4613 70.933C99.8259 74.4359 102.842 77.105 106.419 75.573C107.436 75.134 108.39 74.5875 109.331 74.005C111.151 72.8679 111.349 72.8878 112.928 74.292C115.507 76.5861 118.262 76.7657 120.986 74.8109C121.829 74.2003 122.581 73.4903 123.294 72.732C123.553 72.4649 123.772 72.2734 123.968 72.8161C124.799 75.1226 127.613 76.2872 130.191 75.6928C132.182 75.2299 133.754 74.1603 135.129 72.6046C135.309 72.8959 135.447 73.0997 135.568 73.3107C136.963 75.7764 139.061 76.5623 141.695 75.5887C142.935 75.1302 144.029 74.3799 145.161 73.7056C146.449 72.9401 146.87 72.9914 147.979 74.0292C150.934 76.7862 153.73 76.9296 156.843 74.3723C160.333 71.5117 162.659 67.6975 164.889 63.8315C165.46 62.8427 164.982 61.574 164.026 61.0194Z" fill="#FBFAF7"/>
<path fill-rule="evenodd" clip-rule="evenodd" d="M32.0025 27.5048C31.6067 24.8039 30.6032 22.2902 29.6846 19.7528C29.0204 17.9234 29.0676 17.5028 30.7152 16.5653C31.6104 16.0545 31.1973 15.548 31.0307 14.9535C30.8155 14.1838 30.3371 14.2294 29.7495 14.467C27.7938 15.2629 25.8307 16.0431 23.8713 16.8248C23.4363 16.9982 22.9032 17.1403 23.2734 17.7784C23.5772 18.3011 23.4517 19.3722 24.549 18.9992C25.8797 18.5444 26.5009 19.2149 26.9219 20.3838C27.4881 21.96 28.1271 23.51 28.7049 25.0837C29.089 26.1329 29.3808 27.214 29.3966 28.3491C29.4517 29.893 28.809 31.04 27.5194 31.8421C25.0111 33.4064 23.1165 32.9113 21.2295 30.1705C19.9861 28.3572 19.2855 26.2646 18.3599 24.2855C17.6084 22.6799 17.7013 22.2208 19.2691 21.3513C20.2666 20.7986 19.7639 20.2878 19.5543 19.6596C19.2859 18.8518 18.8099 19.0234 18.2572 19.2866C16.1008 20.3201 13.9403 21.3456 11.7811 22.361C11.1921 22.638 10.7062 22.8856 11.1421 23.7015C11.4861 24.352 11.6821 24.8923 12.6567 24.5254C14.2675 23.9229 14.6721 24.1942 15.4087 25.8041C16.3907 27.9642 17.3466 30.1348 18.6143 32.1477C20.9042 35.7842 23.496 36.6181 27.4074 34.9502C27.8718 34.7507 28.3264 34.5273 28.7656 34.2741C31.4578 32.7231 32.4552 30.6167 32.0025 27.5048Z" fill="#FBFAF7"/>
<path fill-rule="evenodd" clip-rule="evenodd" d="M212.246 30.45C208.537 28.1221 204.82 25.818 200.96 23.7653C200.395 23.4683 199.886 22.9931 199.404 23.9468C199.037 24.6691 198.879 25.1437 199.737 25.6303C200.875 26.2766 201.121 27.1623 200.391 28.421C198.855 31.0725 197.407 33.7772 196 36.5018C195.408 37.657 194.595 38 193.545 37.4156C192.547 36.853 192.334 37.4754 191.938 38.1578C191.38 39.1115 192.137 39.2511 192.662 39.5543C195.246 41.0601 197.832 42.5584 200.419 44.0628C201.485 44.6871 202.606 45.8979 203.599 45.7981C204.745 45.6821 205.218 43.9549 205.984 42.9295C206.277 42.5384 207.12 42.106 206.209 41.4973C205.57 41.0744 204.931 40.2647 204.223 41.4773C203.963 41.9325 203.455 42.1236 202.846 42.1155C201.482 41.8123 200.419 40.767 199.135 40.1768C197.946 39.6261 197.667 38.996 198.518 37.8807C199.184 37.0069 199.384 35.465 200.317 35.1936C201.269 34.9204 202.253 36.0518 203.162 36.652C204.055 37.2407 204.477 37.0131 204.975 36.1355C205.484 35.2298 205.5 34.7574 204.495 34.1887C201.372 32.4134 201.415 32.3773 203.376 29.3134C203.76 28.7109 204.066 28.5636 204.673 28.9684C205.671 29.6289 206.695 30.2552 207.736 30.8477C208.959 31.5481 209.642 32.3559 208.894 33.8941C208.365 34.9813 209.628 34.9233 210.073 35.3723C210.595 35.8988 210.845 35.3942 211.069 34.9613C211.598 33.9259 212.09 32.8729 212.67 31.8674C213.079 31.168 212.876 30.8406 212.246 30.45Z" fill="#FBFAF7"/>
<path fill-rule="evenodd" clip-rule="evenodd" d="M39.0133 19.5728C39.5738 19.7643 40.1633 19.884 40.7416 20.0119C42.1717 20.3269 43.614 20.5863 45.0287 20.9532C45.8987 21.1765 46.7062 21.6336 46.7454 22.6985C46.7846 23.8294 46.0518 24.5217 45.1249 24.9066C43.5925 25.5448 42.0149 25.5129 40.6786 24.4714C39.7069 23.7092 39.2896 24.2 38.8956 24.9779C38.2567 26.2347 38.7566 27.3737 40.091 27.8365C40.8415 28.0979 41.6154 28.1378 42.3991 28.1117C45.3228 28.1155 47.5916 27.1385 49.1086 25.2174C50.674 23.2345 50.253 20.3939 48.1914 18.9575C47.1804 18.2575 46.0262 17.9762 44.8724 17.6887C43.3596 17.31 41.7918 17.1922 40.3304 16.6115C39.6644 16.3483 39.0725 15.9791 39.0095 15.167C38.9549 14.3967 39.3661 13.8465 39.9538 13.4117C41.3783 12.3545 43.0166 12.4661 44.3076 13.703C44.5624 13.9487 44.7659 14.4533 45.1659 14.2818C46.1186 13.8726 46.9569 13.2183 47.1958 12.1534C47.4133 11.206 46.6824 10.745 45.9459 10.392C43.5337 9.24301 39.4912 9.93297 37.4184 11.8422C34.4788 14.5521 35.2415 18.2927 39.0133 19.5728Z" fill="#FBFAF7"/>
<path fill-rule="evenodd" clip-rule="evenodd" d="M189.507 32.1932C188.939 32.0074 188.363 30.9482 187.685 32.0853C187.344 32.6479 186.956 33.1906 186.148 33.1644C185.715 33.1925 185.298 32.9791 184.885 32.7795C183.848 32.283 182.839 31.7185 181.775 31.2913C181.015 30.9881 180.97 30.6688 181.301 29.9508C182.645 27.0385 183.915 24.0858 185.228 21.1535C185.938 19.5555 186.262 19.3383 187.865 19.9603C188.95 20.3832 189.07 19.6733 189.418 19.0271C189.853 18.2212 189.279 18.0596 188.776 17.832C186.55 16.8346 184.322 15.8529 182.104 14.8399C181.487 14.5586 181.014 14.407 180.716 15.2689C180.479 15.9513 180.152 16.4298 181.116 16.9164C182.66 17.6985 182.711 18.0853 182.025 19.7051C180.851 22.4939 179.642 25.2709 178.496 28.0715C178.032 29.2024 177.387 29.775 176.17 29.2623C175.441 28.9568 175.051 29.0984 174.742 29.9347C174.414 30.8285 174.681 31.1473 175.451 31.4885C178.269 32.7292 181.047 34.062 183.863 35.3008C185.056 35.8254 186.298 37.2314 187.392 36.6893C188.413 36.1865 188.903 34.5567 189.61 33.412C189.872 32.991 190.301 32.4545 189.507 32.1932Z" fill="#FBFAF7"/>
<path fill-rule="evenodd" clip-rule="evenodd" d="M161.407 26.4006C163.266 27.063 165.121 27.7253 166.983 28.3835C167.528 28.575 168.1 28.9779 168.41 28.0304C168.651 27.3025 168.998 26.6443 167.922 26.2571C166.983 25.9159 166.529 25.2274 166.904 24.1625C168.047 20.9152 169.188 17.6636 170.324 14.4139C170.451 14.0489 170.551 13.7396 171.047 13.7415C172.807 13.7534 174.021 15.0582 173.771 16.8334C173.612 17.9786 174.599 17.741 175.085 18.0741C175.705 18.4927 175.855 17.9582 175.99 17.4835C176.325 16.3183 176.649 15.1518 177.007 13.9924C177.193 13.3861 177.037 13.0729 176.434 12.8334C172.246 11.1737 167.984 9.73149 163.715 8.3093C163.066 8.09167 162.684 8.25513 162.439 8.9218C162.089 9.88307 161.64 10.8087 161.313 11.7785C161.158 12.2352 160.366 12.8876 161.442 13.1988C162.131 13.3984 162.982 14.1905 163.456 12.8277C163.701 12.1254 164.216 11.6707 165.035 11.6569C165.449 11.7866 165.88 11.97 166.328 12.0499C167.488 12.2575 167.784 12.7621 167.343 13.9648C166.25 16.9332 165.276 19.9473 164.306 22.9618C163.918 24.1568 163.207 24.709 162.035 24.2861C161.002 23.9149 160.92 24.603 160.65 25.2659C160.312 26.1012 160.882 26.2148 161.407 26.4006Z" fill="#FBFAF7"/>
<path fill-rule="evenodd" clip-rule="evenodd" d="M50.8659 11.1719C50.9658 11.7145 50.7501 12.5822 51.7415 12.3246C52.3842 12.1569 53.5128 12.3427 53.1347 10.998C53.1445 10.7646 53.1287 10.5271 53.174 10.2976C53.3522 9.31632 54.7119 8.50614 56.1681 8.56601C57.1306 8.60593 56.8953 9.49355 57.0242 10.0405C57.6785 12.8554 58.29 15.6779 58.8879 18.5066C59.3327 20.615 59.3364 20.6668 57.4652 21.5687C56.5579 22.0077 57.1184 22.5622 57.1693 23.0906C57.2239 23.657 57.4825 23.9184 58.086 23.7787C60.1845 23.2859 62.2853 22.8055 64.3894 22.3408C65.0653 22.1911 65.3421 21.8499 65.097 21.1576C64.901 20.615 65.0737 19.7815 63.974 20.0647C62.8025 20.3679 62.0753 19.8533 61.8265 18.5646C61.1899 15.2731 60.4884 11.9896 59.8064 8.7062C59.7243 8.31941 59.6851 8.01814 60.1164 7.76867C61.6366 6.9029 63.0671 7.2859 63.9353 8.89768C64.4469 9.84898 65.1442 9.26642 65.7439 9.19277C66.5122 9.09488 66.3045 8.50853 66.1673 8.00009C65.8891 6.96659 65.5951 5.93736 65.3523 4.89198C65.1797 4.17352 64.9136 3.93641 64.108 4.1241C60.7203 4.91194 57.2991 5.57433 53.9091 6.35218C52.759 6.61923 51.2365 6.5337 50.5821 7.40945C49.853 8.38498 50.7525 9.79909 50.8528 11.0303C50.8542 11.0764 50.8542 11.1244 50.8659 11.1719Z" fill="#FBFAF7"/>
<path fill-rule="evenodd" clip-rule="evenodd" d="M143.83 8.81176C144.394 8.92533 145.018 9.4599 145.545 8.66208C146.744 6.84264 146.979 6.79514 148.974 7.39338C149.732 7.62099 149.869 8.01395 149.691 8.72813C148.893 11.9379 148.108 15.1515 147.355 18.3708C147.099 19.4799 146.499 20.0363 145.398 19.7412C144.269 19.44 144.295 20.2159 144.064 20.9382C143.748 21.9237 144.458 21.9275 144.99 22.071C146.85 22.5675 148.715 23.0285 150.583 23.5051C151.168 23.6547 151.731 23.8705 151.927 22.9368C152.082 22.1945 152.411 21.5326 151.28 21.2532C150.24 20.9938 149.791 20.2321 150.079 19.1149C150.929 15.8234 151.772 12.5319 152.634 9.24465C152.713 8.95765 152.707 8.59034 153.109 8.46252C154.445 8.03961 156.389 9.56729 156.314 11.0398C155.872 12.3642 157.059 12.1152 157.668 12.3523C158.481 12.6711 158.548 11.9569 158.658 11.4224C158.879 10.377 159.049 9.31782 159.287 8.27434C159.43 7.64188 159.226 7.3088 158.627 7.14154C154.262 5.89658 149.875 4.75759 145.449 3.76591C144.924 3.64806 144.609 3.72598 144.454 4.35226C144.179 5.48127 143.797 6.58653 143.464 7.69938C143.325 8.15935 143.158 8.68014 143.83 8.81176Z" fill="#FBFAF7"/>
<path fill-rule="evenodd" clip-rule="evenodd" d="M112.924 17.7724C116.527 18.0775 120.137 18.2832 123.727 18.776C125.784 19.063 125.796 19.0036 126.254 16.9485C126.395 16.3141 126.481 15.6636 126.642 15.0335C126.807 14.3754 127.065 13.761 126.035 13.6013C125.243 13.4816 124.565 13.398 124.42 14.4828C124.283 15.5039 123.636 15.8974 122.668 15.8133C121.297 15.6936 119.929 15.57 118.561 15.4602C118.048 15.4203 117.848 15.1851 117.895 14.6463C118.2 11.3072 118.522 7.9677 118.761 4.6201C118.859 3.26776 119.478 2.64149 120.771 2.76503C121.735 2.85294 121.876 2.33215 121.959 1.51628C122.049 0.516993 121.425 0.459015 120.78 0.399144C119.232 0.253266 117.679 0.1416 116.127 0.0161543C115.485 0.00997701 114.842 0.00427656 114.201 0C113.751 0.0237587 113.3 0.0479919 112.846 0.0736512C112.589 1.33619 112.797 2.19435 114.331 2.34593C115.313 2.44192 115.411 3.33714 115.348 4.18913C115.137 7.35283 114.921 10.5165 114.721 13.6807C114.651 14.8297 114.196 15.5838 112.954 15.4759C111.991 15.3899 111.978 15.9625 111.931 16.6829C111.878 17.483 112.166 17.7064 112.924 17.7724Z" fill="#FBFAF7"/>
<path fill-rule="evenodd" clip-rule="evenodd" d="M131.34 19.5862C133.268 19.9412 135.22 20.2325 137.148 20.5998C137.785 20.7233 138.306 20.8991 138.455 19.9611C138.572 19.2032 138.821 18.5451 137.703 18.3413C136.474 18.1222 136.145 17.352 136.415 16.0733C137.052 13.0231 137.601 9.95304 138.1 6.87534C138.292 5.66222 138.839 5.12764 140.273 5.33957C141.194 5.64273 141.428 4.94043 141.58 3.98106C141.765 2.786 140.803 3.10341 140.326 3.00173C138.269 2.56694 136.188 2.26758 134.123 1.85656C133.39 1.71305 132.892 1.68882 132.743 2.62254C132.617 3.41607 132.629 3.95112 133.617 4.08654C134.906 4.26616 135.341 5.07395 135.098 6.39255C134.538 9.45885 134.001 12.5289 133.547 15.6147C133.358 16.9214 132.649 17.4741 131.501 17.2783C130.333 17.0806 130.537 17.8784 130.353 18.509C130.074 19.4864 130.792 19.4864 131.34 19.5862Z" fill="#FBFAF7"/>
<path fill-rule="evenodd" clip-rule="evenodd" d="M7.14203 30.1219C6.4209 28.8294 6.6286 27.8696 7.85802 27.2214C8.79571 26.7306 8.49279 26.2221 8.16094 25.5498C7.74926 24.722 7.23211 25.0033 6.68648 25.3065C4.75227 26.3756 2.82227 27.449 0.893201 28.5224C0.338705 28.8294 -0.331545 29.0233 0.185612 29.957C0.617821 30.733 1.00102 31.096 1.89111 30.5776C3.01877 29.919 3.82998 30.2621 4.43255 31.489C5.42859 33.5379 6.60433 35.4928 7.59384 37.5431C9.30727 41.086 8.66456 42.2668 4.82229 42.9055C4.68693 42.9273 4.5441 42.9135 4.41108 42.9435C4.20618 42.9934 4.15437 43.1293 4.16884 43.3526C4.23278 44.1941 5.52988 45.4951 6.32708 45.4909C8.89793 45.479 11.1817 43.2485 11.2961 40.6413C11.3619 39.1112 11.0048 37.679 10.3173 36.3262C9.26806 34.253 8.27156 32.1485 7.14203 30.1219Z" fill="#FBFAF7"/>
<path fill-rule="evenodd" clip-rule="evenodd" d="M81.1063 19.1382C83.0125 18.8949 84.9313 18.7272 86.8473 18.5756C87.4569 18.5276 87.87 18.3698 87.6604 17.6718C87.5036 17.1453 87.8625 16.3294 86.7652 16.2933C84.8506 16.2254 84.8646 16.1256 85.372 14.2629C85.6287 13.3249 86.0361 12.8483 87.0667 12.8702C88.115 12.8901 89.1652 12.7067 90.2135 12.615C90.2154 12.6307 90.2154 12.6468 90.2173 12.663C90.7209 12.6392 91.2287 12.6392 91.7281 12.5893C93.3347 12.4235 93.2507 13.8362 93.5288 14.7376C93.8248 15.6989 92.9076 15.9184 92.2495 15.9502C91.2049 16.002 91.4168 16.6725 91.4131 17.3107C91.4051 18.0348 91.7305 18.2881 92.4278 18.2501C94.4423 18.1408 96.4563 18.0524 98.4708 18.0049C99.1723 17.9887 99.3525 17.6457 99.2839 17.0394C99.2232 16.4967 99.5284 15.7464 98.5235 15.7407C97.3459 15.7369 96.7737 14.9847 96.3135 13.9674C94.4227 9.76636 92.4824 5.59481 90.5468 1.41804C90.3232 0.937166 90.1977 0.328933 89.4336 0.402585C87.9288 0.542286 86.4217 0.652053 84.915 0.761343C84.1351 0.821215 83.5474 0.901054 83.5885 2.01629C83.6258 3.20707 84.2742 3.09967 85.0368 3.06546C85.9755 3.02364 86.6182 3.24887 86.1575 4.43586C84.7759 7.99253 83.6062 11.6252 82.4464 15.2641C82.1757 16.1018 81.7154 16.7861 80.7516 16.8878C80.0207 16.9638 79.707 17.2869 79.8639 18.0928C80.0114 18.8331 80.2284 19.2522 81.1063 19.1382ZM87.0495 9.04456C87.6077 7.48077 88.1407 5.90843 88.8189 3.95404C89.7085 5.88895 90.4138 7.43895 91.1349 8.98469C91.3799 9.50738 91.3953 9.86233 90.6742 9.89417C89.7183 9.93836 88.7559 10.0058 87.8037 10.1056C86.9104 10.1997 86.7731 9.81244 87.0495 9.04456Z" fill="#FBFAF7"/>
<path d="M103.087 94.9003C102.493 94.9003 102.038 94.7764 101.721 94.5285C101.409 94.2806 101.196 93.936 101.083 93.4947C100.969 93.0485 100.912 92.5279 100.912 91.933V83.626H103.585V91.6206C103.585 92.0669 103.619 92.3792 103.689 92.5577C103.758 92.7312 103.921 92.818 104.179 92.818C104.456 92.818 104.629 92.694 104.698 92.4461C104.773 92.1982 104.81 91.8785 104.81 91.4868V83.626H107.46V94.7813H104.802V93.5914C104.634 94.0178 104.431 94.3425 104.194 94.5657C103.961 94.7888 103.592 94.9003 103.087 94.9003Z" fill="#FBFAF7"/>
<path d="M109.29 94.7813V83.626H111.948V85.0464C112.047 84.62 112.23 84.2581 112.497 83.9606C112.77 83.6582 113.146 83.507 113.626 83.507C114.398 83.507 114.957 83.745 115.304 84.2209C115.655 84.6969 115.831 85.3489 115.831 86.1768V94.7813H113.21V86.452C113.21 86.2338 113.166 86.0331 113.076 85.8496C112.987 85.6612 112.834 85.567 112.616 85.567C112.413 85.567 112.262 85.6389 112.163 85.7827C112.069 85.9215 112.01 86.0975 111.985 86.3107C111.96 86.5189 111.948 86.7272 111.948 86.9354V94.7813H109.29Z" fill="#FBFAF7"/>
<path d="M117.638 94.7813V81.6924H120.341V94.7813H117.638Z" fill="#FBFAF7"/>
<path d="M125.407 94.9003C123.19 94.9003 122.081 93.7476 122.081 91.4422V86.9651C122.081 85.9141 122.376 85.0762 122.965 84.4515C123.554 83.8218 124.368 83.507 125.407 83.507C126.452 83.507 127.269 83.8218 127.858 84.4515C128.447 85.0762 128.741 85.9141 128.741 86.9651V91.4422C128.741 93.7476 127.63 94.9003 125.407 94.9003ZM125.407 92.8477C125.63 92.8477 125.789 92.7684 125.883 92.6098C125.982 92.4461 126.031 92.2404 126.031 91.9925V86.5412C126.031 85.8918 125.823 85.567 125.407 85.567C124.992 85.567 124.784 85.8918 124.784 86.5412V91.9925C124.784 92.2404 124.831 92.4461 124.925 92.6098C125.024 92.7684 125.185 92.8477 125.407 92.8477Z" fill="#FBFAF7"/>
<path d="M133.838 94.9003C132.59 94.9003 131.704 94.5805 131.179 93.941C130.66 93.3014 130.4 92.3619 130.4 91.1224V87.6865C130.4 86.7544 130.499 85.9785 130.697 85.3588C130.895 84.739 131.241 84.2755 131.736 83.9681C132.231 83.6607 132.919 83.507 133.8 83.507C134.414 83.507 134.964 83.6161 135.449 83.8342C135.939 84.0524 136.325 84.3721 136.607 84.7936C136.889 85.215 137.03 85.7306 137.03 86.3404V88.0435H134.32V86.4817C134.32 86.2239 134.283 86.0083 134.209 85.8347C134.135 85.6563 133.974 85.567 133.726 85.567C133.291 85.567 133.073 85.8769 133.073 86.4966V91.9032C133.073 92.1313 133.122 92.342 133.221 92.5354C133.32 92.7238 133.484 92.818 133.711 92.818C133.944 92.818 134.105 92.7263 134.194 92.5428C134.288 92.3544 134.335 92.1363 134.335 91.8884V90.0143H137.03V91.9627C137.03 92.5775 136.892 93.1055 136.614 93.5468C136.342 93.9831 135.966 94.3178 135.486 94.5508C135.006 94.7838 134.456 94.9003 133.838 94.9003Z" fill="#FBFAF7"/>
<path d="M138.719 94.7813V81.6924H141.347V87.4709L142.624 83.626H145.379L143.708 88.4748L145.831 94.7813H143.003L141.347 89.5234V94.7813H138.719Z" fill="#FBFAF7"/>
<path d="M151.272 94.7813V81.6924H153.901V87.4709L155.178 83.626H157.932L156.262 88.4748L158.385 94.7813H155.556L153.901 89.5234V94.7813H151.272Z" fill="#FBFAF7"/>
<path d="M159.502 94.7813V83.626H162.16V85.0464C162.259 84.62 162.442 84.2581 162.709 83.9606C162.982 83.6582 163.358 83.507 163.838 83.507C164.61 83.507 165.17 83.745 165.516 84.2209C165.867 84.6969 166.043 85.3489 166.043 86.1768V94.7813H163.422V86.452C163.422 86.2338 163.378 86.0331 163.289 85.8496C163.199 85.6612 163.046 85.567 162.828 85.567C162.625 85.567 162.474 85.6389 162.375 85.7827C162.281 85.9215 162.222 86.0975 162.197 86.3107C162.172 86.5189 162.16 86.7272 162.16 86.9354V94.7813H159.502Z" fill="#FBFAF7"/>
<path d="M171.088 94.9003C168.87 94.9003 167.761 93.7476 167.761 91.4422V86.9651C167.761 85.9141 168.056 85.0762 168.645 84.4515C169.234 83.8218 170.048 83.507 171.088 83.507C172.132 83.507 172.949 83.8218 173.538 84.4515C174.127 85.0762 174.421 85.9141 174.421 86.9651V91.4422C174.421 93.7476 173.31 94.9003 171.088 94.9003ZM171.088 92.8477C171.31 92.8477 171.469 92.7684 171.563 92.6098C171.662 92.4461 171.711 92.2404 171.711 91.9925V86.5412C171.711 85.8918 171.503 85.567 171.088 85.567C170.672 85.567 170.464 85.8918 170.464 86.5412V91.9925C170.464 92.2404 170.511 92.4461 170.605 92.6098C170.704 92.7684 170.865 92.8477 171.088 92.8477Z" fill="#FBFAF7"/>
<path d="M177.335 94.7813L175.991 83.626H178.27L179.005 89.6201L179.651 83.626H182.198L182.963 89.6201L183.579 83.626H185.866L184.507 94.7813H181.708L180.906 88.4525L180.208 94.7813H177.335Z" fill="#FBFAF7"/>
<path d="M187.517 94.7813V81.6924H190.22V94.7813H187.517Z" fill="#FBFAF7"/>
<path d="M195.167 94.9003C194.375 94.9003 193.744 94.7516 193.274 94.4541C192.804 94.1566 192.467 93.7278 192.264 93.1675C192.061 92.6073 191.96 91.933 191.96 91.1447V86.6602C191.96 85.624 192.257 84.8407 192.851 84.3102C193.445 83.7747 194.262 83.507 195.301 83.507C197.439 83.507 198.509 84.5581 198.509 86.6602V87.4709C198.509 88.4525 198.499 89.1119 198.479 89.4491H194.618V91.6058C194.618 91.8041 194.63 91.9999 194.655 92.1933C194.68 92.3817 194.734 92.5379 194.818 92.6618C194.908 92.7858 195.049 92.8477 195.242 92.8477C195.519 92.8477 195.692 92.7287 195.761 92.4908C195.831 92.2478 195.865 91.933 195.865 91.5463V90.4754H198.509V91.1075C198.509 91.9404 198.405 92.6395 198.197 93.2047C197.994 93.765 197.647 94.1889 197.157 94.4764C196.672 94.759 196.009 94.9003 195.167 94.9003ZM194.603 88.1253H195.865V86.623C195.865 86.2215 195.816 85.9339 195.717 85.7604C195.618 85.5819 195.469 85.4926 195.271 85.4926C195.059 85.4926 194.893 85.5769 194.774 85.7455C194.66 85.9141 194.603 86.2066 194.603 86.623V88.1253Z" fill="#FBFAF7"/>
<path d="M202.424 94.9003C201.91 94.9003 201.501 94.8061 201.199 94.6177C200.897 94.4293 200.672 94.169 200.524 93.8368C200.375 93.5047 200.276 93.1155 200.227 92.6692C200.182 92.223 200.16 91.7446 200.16 91.2339V86.3851C200.16 85.5273 200.311 84.8332 200.613 84.3027C200.92 83.7722 201.437 83.507 202.165 83.507C202.704 83.507 203.117 83.6235 203.404 83.8565C203.697 84.0846 203.922 84.4044 204.08 84.8159V81.6924H206.783V94.7813H204.08V93.5989C203.932 94.0005 203.734 94.3178 203.486 94.5508C203.244 94.7838 202.89 94.9003 202.424 94.9003ZM203.442 92.818C203.694 92.818 203.862 92.7163 203.946 92.5131C204.036 92.3098 204.08 91.9454 204.08 91.4198V86.7272C204.08 86.4644 204.041 86.2066 203.961 85.9537C203.887 85.6959 203.719 85.567 203.456 85.567C203.169 85.567 202.989 85.6885 202.914 85.9314C202.84 86.1744 202.803 86.4396 202.803 86.7272V91.4198C202.803 92.3519 203.016 92.818 203.442 92.818Z" fill="#FBFAF7"/>
<path d="M211.567 96.7149C211.052 96.7149 210.609 96.6877 210.238 96.6331C209.872 96.5835 209.543 96.4918 209.251 96.3579C208.959 96.2241 208.667 96.0357 208.375 95.7927L209.273 94.2533C209.921 94.64 210.57 94.8334 211.218 94.8334C211.644 94.8334 211.961 94.697 212.169 94.4244C212.377 94.1517 212.48 93.7972 212.48 93.3609V92.2677C212.268 93.0312 211.701 93.4129 210.78 93.4129C210.251 93.4129 209.822 93.2865 209.496 93.0337C209.169 92.7808 208.931 92.4387 208.783 92.0074C208.634 91.576 208.56 91.0951 208.56 90.5646V86.5561C208.56 85.9562 208.625 85.4282 208.753 84.9721C208.882 84.511 209.107 84.1515 209.429 83.8937C209.751 83.6359 210.201 83.507 210.78 83.507C211.27 83.507 211.651 83.6309 211.924 83.8788C212.201 84.1267 212.386 84.4614 212.48 84.8828V83.626H215.191V93.1898C215.191 94.4541 214.898 95.3564 214.314 95.8969C213.735 96.4422 212.82 96.7149 211.567 96.7149ZM211.857 91.405C212.273 91.405 212.48 91.0282 212.48 90.2746V86.4817C212.48 86.2785 212.421 86.0702 212.302 85.857C212.188 85.6439 212.03 85.5373 211.827 85.5373C211.57 85.5373 211.409 85.6339 211.344 85.8273C211.28 86.0157 211.248 86.2338 211.248 86.4817V90.2746C211.248 90.5423 211.28 90.7976 211.344 91.0406C211.414 91.2835 211.585 91.405 211.857 91.405Z" fill="#FBFAF7"/>
<path d="M220.109 94.9003C219.317 94.9003 218.686 94.7516 218.215 94.4541C217.745 94.1566 217.409 93.7278 217.206 93.1675C217.003 92.6073 216.901 91.933 216.901 91.1447V86.6602C216.901 85.624 217.198 84.8407 217.792 84.3102C218.386 83.7747 219.203 83.507 220.242 83.507C222.381 83.507 223.45 84.5581 223.45 86.6602V87.4709C223.45 88.4525 223.44 89.1119 223.42 89.4491H219.559V91.6058C219.559 91.8041 219.572 91.9999 219.596 92.1933C219.621 92.3817 219.676 92.5379 219.76 92.6618C219.849 92.7858 219.99 92.8477 220.183 92.8477C220.46 92.8477 220.633 92.7287 220.703 92.4908C220.772 92.2478 220.807 91.933 220.807 91.5463V90.4754H223.45V91.1075C223.45 91.9404 223.346 92.6395 223.138 93.2047C222.935 93.765 222.589 94.1889 222.098 94.4764C221.613 94.759 220.95 94.9003 220.109 94.9003ZM219.544 88.1253H220.807V86.623C220.807 86.2215 220.757 85.9339 220.658 85.7604C220.559 85.5819 220.411 85.4926 220.213 85.4926C220 85.4926 219.834 85.5769 219.715 85.7455C219.601 85.9141 219.544 86.2066 219.544 86.623V88.1253Z" fill="#FBFAF7"/>
</svg>
