<svg width="182" height="85" viewBox="0 0 182 85" fill="none" xmlns="http://www.w3.org/2000/svg">
<path fill-rule="evenodd" clip-rule="evenodd" d="M45.6005 84.7553C45.1868 84.3082 44.6001 84.4156 44.0864 84.3209C40.7124 83.6871 37.6642 82.3161 35.0652 80.0964C32.5401 77.9342 31.0788 75.2482 32.0512 71.799C32.5916 69.8823 33.7973 68.4187 35.5916 67.4777C37.0198 66.7214 38.5574 66.2741 40.0743 65.7691C42.2148 65.0578 43.6848 63.6696 44.4776 61.5444C46.0849 57.2207 47.138 52.7208 48.6939 48.3803C49.8544 45.1396 51.1694 41.9666 52.8026 38.9312C53.1893 38.2156 53.6782 37.6181 54.5013 37.4237C55.465 37.1925 56.2903 37.4882 56.8985 38.2672C57.5088 39.0452 57.627 39.9573 57.1413 40.8009C53.198 47.6991 51.5198 55.424 49.0441 62.8596C48.2103 65.3631 49.0981 66.6653 51.724 67.237C52.5599 67.4216 53.4228 67.5097 54.2059 67.9009C55.3578 68.4811 55.9305 69.5191 55.7058 70.6687C55.5156 71.6273 54.595 72.2354 53.2819 72.3085C52.6822 72.3407 52.1224 72.1754 51.554 72.0442C48.8077 71.4276 46.0291 70.9956 43.231 70.7419C41.5118 70.5851 39.7861 70.7031 38.1713 71.4186C36.2059 72.2868 35.8515 73.7137 37.0873 75.4651C38.2478 77.1176 39.954 77.9903 41.7546 78.6564C47.6255 80.8355 53.4226 80.2615 59.0914 77.9041C63.0057 76.273 66.7966 74.311 69.8987 71.4078C75.7082 65.9667 79.915 59.5176 80.2234 51.3043C80.549 42.6189 75.9912 36.2859 66.6794 33.8478C61.6391 32.5228 56.7716 33.3343 51.9881 35.1242C44.3441 37.9813 38.4711 42.9734 34.1741 49.8609C32.9052 51.904 32.1005 54.1472 31.373 56.421C30.8379 58.0929 29.7313 58.8364 28.3603 58.4516C27.0194 58.0712 26.3951 56.7798 26.8593 55.1294C28.255 50.1897 30.806 45.838 34.1455 42.0106C39.7994 35.5273 46.7856 31.0949 55.2613 29.3199C61.3901 28.0391 67.5102 28.0885 73.2007 31.1046C80.5072 34.976 84.5462 40.9953 84.8544 49.4107C85.165 57.777 82.0393 64.8472 76.753 71.0446C71.2022 77.5562 64.2695 81.9508 55.8726 83.9363C54.5671 84.2479 53.1916 84.2199 51.9325 84.755C51.5436 84.755 51.1524 84.755 50.7612 84.755C49.588 84.5593 48.4146 84.5593 47.2413 84.755C46.6943 84.7552 46.1494 84.7553 45.6005 84.7553Z" fill="#0FFEBA"/>
<path fill-rule="evenodd" clip-rule="evenodd" d="M47.2383 84.7569C48.4115 84.3829 49.5849 84.3678 50.7581 84.7569C49.5847 84.7569 48.4115 84.7569 47.2383 84.7569Z" fill="#0FFEBA"/>
<path fill-rule="evenodd" clip-rule="evenodd" d="M122.904 67.8648C121.39 69.5451 119.659 70.7058 117.468 71.2042C114.626 71.8489 111.525 70.5916 110.608 68.0926C110.394 67.5057 110.15 67.7122 109.868 68.0066C109.08 68.8232 108.251 69.5946 107.324 70.2501C104.324 72.3668 101.292 72.1756 98.4488 69.6914C96.7104 68.1699 96.4921 68.1503 94.4849 69.3796C93.4491 70.0073 92.3994 70.6025 91.2789 71.0752C87.3355 72.734 84.0142 69.8459 83.6124 66.0529C83.2772 62.8598 84.2593 59.9349 85.8581 57.2315C89.1697 51.6248 93.6469 47.2737 99.7641 44.8206C102.396 43.7643 105.134 43.4334 107.885 44.4166C109.483 44.9872 110.283 46.1154 110.169 47.4436C110.023 49.1648 108.103 50.2245 106.716 49.2069C105.629 48.402 104.509 48.3054 103.402 48.676C95.8466 51.2058 90.5818 56.0754 88.1984 63.8137C88.1532 63.9597 88.132 64.1189 88.119 64.2737C88.0439 65.1934 88.0201 66.1605 88.9065 66.6954C89.7231 67.1875 90.4183 66.5235 91.0222 66.0981C93.5624 64.2994 95.677 62.0559 97.656 59.6749C99.9275 56.9392 102.175 54.182 104.454 51.455C105.285 50.4626 106.462 50.3465 107.483 51.081C108.547 51.846 108.88 53.2043 108.128 54.2807C106.856 56.1096 105.504 57.8825 104.169 59.6619C102.904 61.3554 102.47 63.3259 102.236 65.3609C102.176 65.8941 102.193 66.5237 102.721 66.8438C103.28 67.1766 103.867 66.9468 104.374 66.6203C105.947 65.6059 107.093 64.1554 108.226 62.7154C110.983 59.1975 113.14 55.2973 115.411 51.4699C116.526 49.5834 117.717 47.7463 118.863 45.8819C119.157 45.3973 119.476 45.0018 118.469 44.8042C117.057 44.5259 116.647 42.4264 117.676 41.2294C118.121 40.7106 118.699 40.2699 119.356 40.2216C122.686 39.9798 123.878 37.5763 124.869 34.9297C125.342 33.6684 126.228 33.1473 127.513 33.3396C128.537 33.4933 129.42 34.4795 129.459 35.5336C129.487 36.1817 129.173 36.7382 128.95 37.3194C128.468 38.582 128.522 38.6701 129.88 38.7968C130.923 38.8936 131.516 39.4856 131.718 40.4633C131.948 41.5796 131.385 42.6962 130.32 43.1657C129.606 43.4784 128.849 43.6834 128.103 43.9146C126.012 44.5624 124.364 45.6843 123.252 47.6775C120.946 51.8029 118.112 55.6152 116.176 59.954C115.616 61.2068 115.177 62.4983 114.895 63.8394C114.718 64.6666 114.734 65.5112 115.53 66.0701C116.298 66.6116 117.107 66.4182 117.851 66.0013C119.198 65.2535 119.991 63.9534 120.851 62.7651C122.89 59.9455 124.762 57.0122 126.818 54.2098C130.282 49.4924 134.666 45.9702 140.368 44.2907C142.277 43.7297 144.225 43.7201 146.161 44.1876C147.173 44.4336 148.052 44.9354 148.68 45.7919C149.339 46.6913 149.255 48.0031 148.501 48.8199C147.738 49.6386 146.509 49.9124 145.632 49.2088C144.573 48.3557 143.42 48.3052 142.313 48.6781C134.842 51.1714 129.632 56.0022 127.168 63.5946C126.96 64.235 126.953 64.912 127.092 65.5674C127.355 66.7772 128.045 67.1147 129.15 66.5666C130.927 65.677 132.321 64.2803 133.667 62.8767C137.022 59.3783 139.995 55.5446 143.088 51.8163C144.172 50.5134 145.242 50.2468 146.411 51.0835C147.611 51.9409 147.783 53.3399 146.801 54.6851C145.651 56.2646 144.497 57.8398 143.298 59.3783C141.969 61.0784 141.446 63.0574 141.169 65.1291C141.085 65.7457 141.034 66.4658 141.65 66.8375C142.293 67.2242 142.943 66.8869 143.498 66.4938C144.99 65.4471 146.152 64.0633 147.212 62.615C148.78 60.4724 150.231 58.2416 151.761 56.0757C152.525 54.9903 153.689 54.7348 154.737 55.3278C155.792 55.9273 156.319 57.2983 155.693 58.3707C153.233 62.5526 150.672 66.6808 146.828 69.7774C143.397 72.543 140.32 72.3885 137.063 69.4057C135.839 68.2862 135.375 68.2259 133.959 69.0554C132.713 69.7861 131.508 70.5942 130.141 71.0928C127.237 72.148 124.927 71.297 123.388 68.6279C123.254 68.4 123.101 68.1786 122.904 67.8648Z" fill="#0FFEBA"/>
<path fill-rule="evenodd" clip-rule="evenodd" d="M25.6614 24.4696C25.6495 23.5186 25.3982 22.6129 25.0726 21.7339C24.5816 20.4186 24.0356 19.1198 23.551 17.8033C23.1944 16.8222 22.6646 16.2614 21.53 16.6449C20.5963 16.9544 20.7026 16.0563 20.4447 15.621C20.1289 15.0869 20.5801 14.971 20.9539 14.8237C22.6226 14.1671 24.2944 13.514 25.9611 12.8511C26.4617 12.649 26.8701 12.6125 27.0528 13.2571C27.197 13.7547 27.5472 14.179 26.7852 14.6078C25.3799 15.3911 25.3411 15.7413 25.9074 17.2737C26.6896 19.3978 27.5449 21.4997 27.88 23.7604C28.2668 26.366 27.4158 28.1293 25.1208 29.4271C24.7491 29.6387 24.3613 29.8279 23.969 29.99C20.6338 31.387 18.4235 30.6918 16.4734 27.6476C15.3946 25.9639 14.5791 24.1437 13.7434 22.3365C13.1147 20.989 12.771 20.7634 11.3976 21.2684C10.5683 21.5736 10.4006 21.121 10.1083 20.5785C9.73535 19.895 10.1512 19.6878 10.6511 19.4556C12.4927 18.6067 14.3322 17.746 16.1684 16.8833C16.6413 16.6619 17.0452 16.5191 17.2751 17.1939C17.4536 17.7203 17.8811 18.1501 17.0323 18.6112C15.6956 19.3397 15.616 19.7233 16.2577 21.0684C17.0452 22.7222 17.6426 24.4747 18.7022 25.9907C20.3118 28.2868 21.9257 28.7005 24.0618 27.3908C25.1594 26.7205 25.7054 25.7578 25.6614 24.4696Z" fill="#0FFEBA"/>
<path fill-rule="evenodd" clip-rule="evenodd" d="M173.448 35.9895C173.968 35.9958 174.4 35.8358 174.624 35.4575C175.226 34.4401 175.769 35.117 176.313 35.4726C177.091 35.9808 176.371 36.3439 176.122 36.6706C175.47 37.5282 175.065 38.9754 174.09 39.0712C173.242 39.1559 172.289 38.1416 171.38 37.6195C169.176 36.3611 166.971 35.1051 164.771 33.8481C164.322 33.5912 163.68 33.4764 164.156 32.6781C164.491 32.1064 164.674 31.5874 165.523 32.057C166.419 32.5469 167.11 32.2588 167.616 31.292C168.815 29.0109 170.05 26.7469 171.357 24.5304C171.978 23.4762 171.768 22.7371 170.801 22.1933C170.068 21.7851 170.201 21.3852 170.515 20.7826C170.926 19.9874 171.359 20.3829 171.841 20.6323C175.129 22.3504 178.298 24.278 181.456 26.2228C181.992 26.5537 182.165 26.8277 181.821 27.4132C181.323 28.2512 180.903 29.1334 180.454 30.0016C180.263 30.3626 180.05 30.787 179.607 30.3455C179.228 29.9683 178.151 30.0166 178.603 29.1075C179.238 27.8214 178.655 27.1455 177.615 26.5601C176.729 26.0638 175.853 25.5403 175.003 24.987C174.487 24.6473 174.226 24.7719 173.9 25.2739C172.229 27.8398 172.191 27.8721 174.853 29.3559C175.709 29.8307 175.697 30.2283 175.261 30.9859C174.839 31.7207 174.478 31.9099 173.718 31.4178C172.942 30.916 172.105 29.9683 171.295 30.1973C170.498 30.424 170.33 31.7135 169.761 32.4463C169.035 33.379 169.273 33.9065 170.287 34.3665C171.38 34.8623 172.288 35.7371 173.448 35.9895Z" fill="#0FFEBA"/>
<path fill-rule="evenodd" clip-rule="evenodd" d="M36.7393 24.2725C36.0711 24.2971 35.4112 24.2617 34.7729 24.0448C33.6341 23.6548 33.2106 22.7017 33.7542 21.6508C34.0894 20.9996 34.4441 20.5892 35.2747 21.2254C36.4125 22.0968 37.7557 22.1227 39.0622 21.5907C39.851 21.2683 40.474 20.6882 40.4396 19.7417C40.4086 18.851 39.7219 18.4683 38.9794 18.2793C37.7737 17.9752 36.5434 17.7572 35.3273 17.4929C34.834 17.3865 34.3322 17.2853 33.8531 17.1274C30.6404 16.0529 29.9915 12.924 32.495 10.657C34.2615 9.05819 37.7064 8.48125 39.7616 9.44176C40.387 9.7383 41.0125 10.1219 40.8255 10.916C40.6224 11.81 39.9079 12.3547 39.0966 12.6984C38.7561 12.8414 38.5808 12.418 38.3649 12.2127C37.2645 11.1779 35.8688 11.0845 34.6547 11.9688C34.1539 12.3352 33.8037 12.796 33.8531 13.4375C33.9047 14.1187 34.4076 14.426 34.9748 14.6496C36.2223 15.1342 37.5578 15.232 38.845 15.5489C39.8283 15.7918 40.8134 16.0259 41.6731 16.6115C43.4309 17.8117 43.7888 20.1895 42.4553 21.852C41.163 23.4581 39.2299 24.2746 36.7393 24.2725Z" fill="#0FFEBA"/>
<path fill-rule="evenodd" clip-rule="evenodd" d="M159.221 28.4987C159.911 28.518 160.241 28.0657 160.531 27.5961C161.111 26.643 161.601 27.5305 162.084 27.6865C162.761 27.9045 162.396 28.3548 162.172 28.7063C161.57 29.6657 161.153 31.0291 160.284 31.4515C159.353 31.9052 158.293 30.7262 157.275 30.289C154.878 29.252 152.511 28.1346 150.108 27.0956C149.451 26.812 149.225 26.5443 149.504 25.7965C149.767 25.0971 150.101 24.9757 150.721 25.2336C151.759 25.6632 152.306 25.1841 152.702 24.2376C153.682 21.8931 154.709 19.5722 155.71 17.2364C156.292 15.8793 156.25 15.5569 154.935 14.9014C154.113 14.4922 154.393 14.0933 154.595 13.5217C154.848 12.8017 155.249 12.9275 155.775 13.1629C157.666 14.0129 159.565 14.8316 161.461 15.6664C161.891 15.8566 162.381 15.9931 162.007 16.6668C161.712 17.2073 161.61 17.8046 160.685 17.4491C159.318 16.9258 159.044 17.1094 158.435 18.4484C157.319 20.9003 156.237 23.3715 155.091 25.8118C154.81 26.4112 154.848 26.6789 155.496 26.9323C156.402 27.2892 157.262 27.7619 158.145 28.1765C158.498 28.3441 158.852 28.5225 159.221 28.4987Z" fill="#0FFEBA"/>
<path fill-rule="evenodd" clip-rule="evenodd" d="M141.234 10.4986C140.533 10.5105 140.095 10.8919 139.887 11.4797C139.483 12.6187 138.759 11.9558 138.17 11.7913C137.255 11.5313 137.929 10.9811 138.059 10.6009C138.341 9.78856 138.72 9.01505 139.02 8.20907C139.227 7.65144 139.554 7.51707 140.106 7.69432C143.745 8.88811 147.374 10.0957 150.945 11.4842C151.459 11.6862 151.593 11.9463 151.431 12.4544C151.128 13.4234 150.852 14.4014 150.567 15.378C150.453 15.7732 150.322 16.2192 149.796 15.869C149.382 15.5918 148.541 15.7904 148.676 14.8299C148.89 13.3462 147.855 12.2521 146.355 12.2447C145.931 12.2403 145.847 12.5016 145.738 12.8066C144.771 15.527 143.8 18.2455 142.824 20.9662C142.506 21.8558 142.891 22.433 143.691 22.7165C144.608 23.0422 144.311 23.5924 144.107 24.2016C143.843 24.9967 143.355 24.6592 142.891 24.4979C141.306 23.9479 139.723 23.3924 138.142 22.8401C137.695 22.6822 137.208 22.5885 137.497 21.8891C137.726 21.3347 137.796 20.7567 138.678 21.0683C139.674 21.424 140.282 20.9585 140.611 19.9594C141.437 17.4374 142.268 14.9157 143.199 12.4315C143.574 11.4258 143.321 11.0002 142.333 10.8272C141.952 10.7597 141.586 10.6049 141.234 10.4986Z" fill="#0FFEBA"/>
<path fill-rule="evenodd" clip-rule="evenodd" d="M45.8898 9.94481C46.2123 11.072 45.2494 10.9172 44.7024 11.0569C43.8569 11.273 44.0395 10.5453 43.9556 10.0898C43.9448 10.0512 43.9448 10.0113 43.9448 9.97262C43.8601 8.94227 43.0915 7.75696 43.7139 6.94143C44.2704 6.20974 45.5693 6.28169 46.5494 6.05818C49.4396 5.40588 52.3515 4.85377 55.2388 4.19191C55.9242 4.03505 56.1532 4.23479 56.2969 4.83551C56.5054 5.71112 56.7569 6.5708 56.9921 7.43686C57.1093 7.86118 57.2844 8.35322 56.6323 8.43282C56.1218 8.49608 55.5255 8.98514 55.0925 8.18786C54.3521 6.8372 53.1335 6.51922 51.8357 7.24348C51.4714 7.45087 51.5045 7.70538 51.5735 8.02994C52.1537 10.7773 52.7533 13.5249 53.2948 16.2797C53.5075 17.3553 54.1265 17.7873 55.1256 17.5347C56.0605 17.2974 55.9165 17.9936 56.0821 18.4502C56.2903 19.0271 56.0551 19.3152 55.4782 19.4377C53.686 19.8289 51.8958 20.2305 50.1089 20.6421C49.5941 20.7614 49.3729 20.541 49.3267 20.0683C49.2825 19.6236 48.8055 19.1604 49.579 18.793C51.1736 18.0375 51.1715 17.9957 50.7911 16.2292C50.2808 13.8643 49.7608 11.5005 49.2019 9.14519C49.0934 8.68542 49.2933 7.9429 48.4723 7.91064C47.2322 7.86118 46.0741 8.53705 45.9212 9.36107C45.8854 9.5536 45.8962 9.75143 45.8898 9.94481Z" fill="#0FFEBA"/>
<path fill-rule="evenodd" clip-rule="evenodd" d="M133.805 9.98205C133.866 8.7475 132.21 7.4688 131.073 7.8235C130.73 7.9309 130.734 8.237 130.669 8.47877C129.935 11.2293 129.215 13.9854 128.493 16.7383C128.244 17.6732 128.626 18.3146 129.512 18.5286C130.479 18.763 130.197 19.3151 130.065 19.9404C129.898 20.7216 129.419 20.5399 128.918 20.4153C127.328 20.0156 125.738 19.6299 124.154 19.2106C123.7 19.0935 123.094 19.0905 123.363 18.2652C123.559 17.6602 123.538 17.0113 124.501 17.2637C125.437 17.5129 125.951 17.0444 126.17 16.1162C126.81 13.4214 127.483 10.7331 128.16 8.04468C128.31 7.44948 128.196 7.11728 127.548 6.92942C125.848 6.42889 125.65 6.46965 124.626 7.99098C124.18 8.66047 123.647 8.21237 123.165 8.11558C122.592 8.00499 122.736 7.5709 122.854 7.18627C123.139 6.25144 123.462 5.32956 123.696 4.38624C123.829 3.85769 124.097 3.79635 124.545 3.8942C128.317 4.72375 132.058 5.67662 135.771 6.71695C136.284 6.8598 136.458 7.13808 136.335 7.66875C136.133 8.53926 135.989 9.42549 135.799 10.3034C135.706 10.7483 135.647 11.3467 134.955 11.0803C134.437 10.8814 133.425 11.0897 133.805 9.98205Z" fill="#0FFEBA"/>
<path fill-rule="evenodd" clip-rule="evenodd" d="M96.7668 0.803705C97.1525 0.782266 97.5371 0.761673 97.9209 0.740234C98.4666 0.743418 99.0134 0.749784 99.5607 0.756364C100.885 0.860588 102.205 0.955261 103.524 1.07774C104.073 1.12932 104.608 1.17559 104.529 2.01151C104.459 2.69374 104.341 3.13228 103.517 3.05374C102.415 2.9561 101.89 3.47722 101.807 4.60967C101.601 7.40886 101.326 10.2055 101.066 12.9992C101.027 13.4515 101.197 13.6491 101.633 13.6814C102.801 13.7739 103.967 13.8782 105.134 13.9771C105.958 14.048 106.509 13.7192 106.627 12.865C106.752 11.955 107.327 12.027 108.003 12.1259C108.879 12.259 108.66 12.7748 108.521 13.3239C108.382 13.8504 108.308 14.3963 108.189 14.9282C107.799 16.6474 107.788 16.6979 106.034 16.4593C102.978 16.0446 99.9033 15.875 96.8324 15.6181C96.1867 15.5621 95.9406 15.3732 95.9856 14.7047C96.0245 14.1029 96.0383 13.6239 96.8581 13.6935C97.9154 13.785 98.3042 13.1552 98.3645 12.1925C98.5343 9.54385 98.7171 6.8975 98.8988 4.2467C98.9491 3.53645 98.8676 2.78756 98.0317 2.7069C96.7237 2.58102 96.5464 1.86101 96.7668 0.803705Z" fill="#0FFEBA"/>
<path fill-rule="evenodd" clip-rule="evenodd" d="M120.135 5.20952C118.912 5.0344 118.448 5.48037 118.282 6.49777C117.856 9.06898 117.392 11.6423 116.847 14.1931C116.617 15.2645 116.897 15.9068 117.944 16.0917C118.897 16.2615 118.685 16.8125 118.587 17.4476C118.459 18.2301 118.014 18.0838 117.474 17.9817C115.827 17.6733 114.167 17.4283 112.521 17.1318C112.057 17.0479 111.442 17.0479 111.683 16.2324C111.84 15.7049 111.667 15.0354 112.66 15.201C113.636 15.3653 114.24 14.9034 114.404 13.8094C114.791 11.2265 115.249 8.65634 115.725 6.09044C115.932 4.98813 115.56 4.31311 114.461 4.16282C113.624 4.04884 113.613 3.59989 113.718 2.93571C113.846 2.15456 114.268 2.17387 114.894 2.29529C116.652 2.63811 118.427 2.88731 120.181 3.25496C120.586 3.3388 121.407 3.0724 121.249 4.07155C121.119 4.87647 120.92 5.46509 120.135 5.20952Z" fill="#0FFEBA"/>
<path fill-rule="evenodd" clip-rule="evenodd" d="M6.00566 38.8164C5.32661 38.8208 4.21984 37.7302 4.1672 37.0252C4.15531 36.8382 4.19819 36.7253 4.37247 36.6856C4.48412 36.6589 4.60681 36.6695 4.72483 36.6512C7.99568 36.1172 8.5446 35.1297 7.08441 32.1652C6.24191 30.4481 5.23958 28.8117 4.38966 27.0979C3.8783 26.0707 3.18631 25.7829 2.2258 26.3339C1.46715 26.768 1.14068 26.4617 0.77197 25.8149C0.330239 25.0348 0.901877 24.8748 1.37481 24.6148C3.01862 23.7167 4.66137 22.8194 6.30878 21.9232C6.77598 21.6698 7.21538 21.4331 7.56583 22.1285C7.84964 22.6903 8.10754 23.1147 7.31026 23.5263C6.2625 24.0688 6.08526 24.8748 6.69766 25.9535C7.66029 27.6513 8.51021 29.4122 9.40322 31.1454C9.99184 32.2779 10.2939 33.4748 10.2391 34.7557C10.1413 36.9414 8.1933 38.8079 6.00566 38.8164Z" fill="#0FFEBA"/>
<path fill-rule="evenodd" clip-rule="evenodd" d="M85.2088 15.0045C85.1585 14.549 85.4164 13.9183 84.5631 13.9162C83.5585 13.9141 83.0717 13.2845 82.6795 12.4312C81.0666 8.91645 79.4141 5.42548 77.765 1.93133C77.5757 1.52526 77.4685 1.01688 76.8151 1.07716C75.5332 1.19646 74.2503 1.28774 72.9663 1.38028C72.301 1.42868 71.8005 1.49534 71.8347 2.42995C71.865 3.42698 72.4203 3.33464 73.0692 3.30789C73.8688 3.2735 74.4156 3.46158 74.0244 4.45542C72.8491 7.43057 71.8497 10.4726 70.8612 13.5176C70.6313 14.2181 70.2401 14.791 69.4182 14.8746C68.796 14.9413 68.5286 15.2121 68.6627 15.8846C68.7863 16.5036 68.9722 16.8549 69.72 16.7612C71.3445 16.557 72.9779 16.4174 74.6122 16.2864C75.131 16.2478 75.4814 16.1166 75.3053 15.5333C75.1709 15.0926 75.4804 14.4104 74.5402 14.3783C72.9113 14.3225 72.9232 14.2397 73.3541 12.6806C73.5731 11.8963 73.9215 11.4966 74.8003 11.5127C75.6909 11.5299 76.5859 11.3796 77.4799 11.2989C77.4821 11.3127 77.4821 11.3257 77.4844 11.3386C77.9132 11.3214 78.3439 11.3214 78.7714 11.2773C80.1403 11.1408 80.0652 12.324 80.3059 13.0771C80.5574 13.8831 79.7773 14.0646 79.2163 14.0926C78.3246 14.1346 78.505 14.6965 78.5031 15.2285C78.4967 15.8366 78.7729 16.0472 79.3668 16.017C81.0838 15.9245 82.7988 15.8527 84.5158 15.8107C85.1152 15.7965 85.2679 15.5118 85.2088 15.0045ZM77.8733 9.02173C77.0577 9.06058 76.2401 9.11852 75.4256 9.20004C74.665 9.27857 74.55 8.95508 74.7833 8.31254C75.2592 7.00178 75.7126 5.68551 76.294 4.05126C77.0492 5.67044 77.6519 6.9674 78.2655 8.26202C78.4727 8.70163 78.488 8.99392 77.8733 9.02173Z" fill="#0FFEBA"/>
</svg>
